<?xml version="1.0" encoding="UTF-8" standalone="no"?>
<!-- Created with Inkscape (http://www.inkscape.org/) -->

<svg
   xmlns:dc="http://purl.org/dc/elements/1.1/"
   xmlns:cc="http://creativecommons.org/ns#"
   xmlns:rdf="http://www.w3.org/1999/02/22-rdf-syntax-ns#"
   xmlns:svg="http://www.w3.org/2000/svg"
   xmlns="http://www.w3.org/2000/svg"
   xmlns:sodipodi="http://sodipodi.sourceforge.net/DTD/sodipodi-0.dtd"
   xmlns:inkscape="http://www.inkscape.org/namespaces/inkscape"
   width="213"
   height="213"
   id="svg2951"
   version="1.1"
   inkscape:version="0.47 r22583"
   sodipodi:docname="213x213.svg"
   inkscape:export-filename="C:\@СХЕМА ПОДВЕСКИ\KOLESO_PIC\213x213.png"
   inkscape:export-xdpi="90"
   inkscape:export-ydpi="90">
  <defs
     id="defs2953">
    <inkscape:perspective
       sodipodi:type="inkscape:persp3d"
       inkscape:vp_x="0 : 526.18109 : 1"
       inkscape:vp_y="0 : 1000 : 0"
       inkscape:vp_z="744.09448 : 526.18109 : 1"
       inkscape:persp3d-origin="372.04724 : 350.78739 : 1"
       id="perspective2959" />
  </defs>
  <sodipodi:namedview
     id="base"
     pagecolor="#ffffff"
     bordercolor="#666666"
     borderopacity="1.0"
     inkscape:pageopacity="0.0"
     inkscape:pageshadow="2"
     inkscape:zoom="1.979899"
     inkscape:cx="53.262916"
     inkscape:cy="111.79878"
     inkscape:document-units="px"
     inkscape:current-layer="layer1"
     showgrid="false"
     inkscape:window-width="1024"
     inkscape:window-height="712"
     inkscape:window-x="-4"
     inkscape:window-y="-4"
     inkscape:window-maximized="1" />
  <metadata
     id="metadata2956">
    <rdf:RDF>
      <cc:Work
         rdf:about="">
        <dc:format>image/svg+xml</dc:format>
        <dc:type
           rdf:resource="http://purl.org/dc/dcmitype/StillImage" />
        <dc:title></dc:title>
      </cc:Work>
    </rdf:RDF>
  </metadata>
  <g
     inkscape:label="Layer 1"
     inkscape:groupmode="layer"
     id="layer1"
     transform="translate(0,-839.36218)">
    <path
       sodipodi:type="star"
       style="fill:none;stroke:#000000;stroke-width:1;stroke-miterlimit:4;stroke-opacity:1;stroke-dasharray:none"
       id="path2961"
       sodipodi:sides="22"
       sodipodi:cx="40.406102"
       sodipodi:cy="41.274067"
       sodipodi:r1="33.308239"
       sodipodi:r2="30.976663"
       sodipodi:arg1="0.71027101"
       sodipodi:arg2="0.85307067"
       inkscape:flatsided="false"
       inkscape:rounded="1"
       inkscape:randomized="0"
       d="m 65.659915,62.992347 c -3.352793,3.898596 -1.007801,-1.765214 -4.881295,1.616547 -3.873495,3.381763 2.054934,1.822446 -2.260409,4.618531 -4.315342,2.796085 -0.469659,-1.977641 -5.139002,0.175847 -4.669343,2.153487 1.458253,2.327566 -3.470036,3.794617 -4.928289,1.467051 0.10653,-2.029851 -4.980379,-1.279101 -5.086909,0.75075 0.743432,2.644121 -4.398543,2.663287 -5.141974,0.01917 0.674091,-1.917615 -4.418273,-2.630424 -5.092365,-0.712808 -0.03162,2.746465 -4.970706,1.316192 -4.939088,-1.430272 1.18704,-1.650024 -3.498227,-3.768644 -4.685266,-2.118619 -0.804104,2.626306 -5.14017,-0.137532 -4.336067,-2.763838 1.603821,-1.24876 -2.294775,-4.601552 -3.898596,-3.352793 -1.511448,2.293379 -4.89321,-1.580115 -3.381762,-3.873494 1.890672,-0.746327 -0.905413,-5.06167 -2.796085,-4.315342 -2.096344,1.774657 -4.249831,-2.894686 -2.1534877,-4.669342 2.024351,-0.183431 0.557299,-5.11172 -1.4670508,-4.928289 -2.5114053,1.112163 -3.2621555,-3.974747 -0.7507501,-5.086909 1.9940292,0.394324 1.9748633,-4.74765 -0.019166,-5.141975 -2.7230086,0.359567 -2.0102001,-4.732797 0.7128084,-5.092364 1.802163,0.940134 3.2324353,-3.998954 1.430272,-4.939089 -2.7140097,-0.422158 -0.59539,-5.107425 2.118619,-4.685266 1.464296,1.409781 4.228134,-2.926285 2.763838,-4.336067 -2.485137,-1.169683 0.867656,-5.068279 3.352792,-3.898596 1.007801,1.765214 4.881295,-1.616548 3.873494,-3.381762 -2.054935,-1.822446 2.260408,-4.61853 4.315342,-2.796085 0.46966,1.97764 5.139003,-0.175847 4.669343,-2.153487 -1.458253,-2.327566 3.470036,-3.7946172 4.928289,-1.4670512 -0.106531,2.0298512 4.980378,1.2791012 5.08691,-0.7507504 -0.743432,-2.6441208 4.398543,-2.6632867 5.141975,-0.019166 -0.67409,1.9176147 4.418274,2.6304227 5.092364,0.712809 0.03162,-2.7464637 4.970705,-1.3161915 4.939088,1.4302725 -1.187039,1.6500245 3.498227,3.7686445 4.685267,2.118619 0.804105,-2.626306 5.140171,0.137532 4.336066,2.763838 -1.603822,1.248759 2.294774,4.601552 3.898596,3.352793 1.511449,-2.293379 4.893211,1.580115 3.381762,3.873494 -1.890672,0.746327 0.905413,5.06167 2.796084,4.315342 2.096343,-1.774658 4.249831,2.894686 2.153487,4.669342 -2.024351,0.183431 -0.5573,5.11172 1.467051,4.928289 2.511406,-1.112163 3.262156,3.974747 0.75075,5.086909 -1.994029,-0.394324 -1.974863,4.74765 0.01917,5.141975 2.723008,-0.359567 2.0102,4.732797 -0.712809,5.092364 -1.802163,-0.940134 -3.232435,3.998954 -1.430273,4.939088 2.714009,0.422158 0.59539,5.107424 -2.11862,4.685267 -1.464297,-1.40978 -4.228135,2.926286 -2.763838,4.336067 2.485138,1.169682 -0.867655,5.068279 z"
       transform="translate(0,839.36218)" />
    <path
       sodipodi:type="star"
       style="fill:none;stroke:#000000;stroke-width:1;stroke-miterlimit:4;stroke-opacity:1;stroke-dasharray:none"
       id="path2963"
       sodipodi:sides="22"
       sodipodi:cx="105.05586"
       sodipodi:cy="104.91368"
       sodipodi:r1="83.888288"
       sodipodi:r2="78.01611"
       sodipodi:arg1="1.0613586"
       sodipodi:arg2="1.2041583"
       inkscape:flatsided="false"
       inkscape:rounded="1"
       inkscape:randomized="0"
       d="m 145.96704,178.14974 c -11.30593,6.31573 -0.85437,-5.04751 -12.94404,-0.40507 -12.08967,4.64244 3.28118,6.08986 -9.34613,8.96451 -12.62731,2.87464 0.60228,-5.08376 -12.3056,-4.03542 -12.907881,1.04833 1.43256,6.76759 -11.493134,5.96827 -12.925694,-0.79932 2.010144,-4.70814 -10.670231,-7.33885 -12.68037,-2.6307 -0.532122,6.89706 -12.709036,2.48853 -12.176919,-4.40853 3.255156,-3.95111 -8.17042,-10.04772 -11.425572,-6.09662 -2.453693,6.46776 -12.89533,-1.19283 -10.441641,-7.66059 4.236455,-2.87398 -5.00869,-11.94259 -9.245142,-9.06861 -4.176479,5.51448 -12.03692,-4.77755 -7.860444,-10.29203 4.874542,-1.56401 -1.441186,-12.86994 -6.315725,-11.30593 -5.560912,4.11446 -10.203351,-7.97521 -4.64244,-12.08968 5.117722,-0.12734 2.243075,-12.75465 -2.874646,-12.6273 -6.494833,2.3811 -7.543167,-10.52678 -1.048334,-12.907882 4.946295,1.31965 5.745615,-11.60605 0.799319,-12.925687 -6.902582,0.45485 -4.27188,-12.22552 2.630702,-12.680374 4.374148,2.659722 8.782679,-9.517197 4.408529,-12.176914 -6.751124,-1.508259 -0.654511,-12.933831 6.096614,-11.425575 3.447634,3.784325 11.108223,-6.657317 7.660585,-10.441637 -6.05273,-3.349175 3.015882,-12.594316 9.068616,-9.245145 2.241814,4.602343 12.533845,-3.258101 10.292027,-7.860442 -4.86398,-4.918762 6.441947,-11.234487 11.305931,-6.315727 0.854375,5.047509 12.944049,0.405068 12.08967,-4.642439 -3.281179,-6.089859 9.346124,-8.964505 12.627307,-2.874647 -0.602281,5.083754 12.305603,4.03542 12.907884,-1.048334 -1.432557,-6.767592 11.493134,-5.968272 12.92569,0.79932 -2.01014,4.708144 10.67023,7.338846 12.68037,2.630701 0.53212,-6.897055 12.70904,-2.488525 12.17691,4.408531 -3.25516,3.951108 8.17042,10.047722 11.42557,6.096612 2.45369,-6.467759 12.89533,1.192827 10.44164,7.660589 -4.23646,2.873977 5.00869,11.942592 9.24514,9.068612 4.17648,-5.514484 12.03692,4.777543 7.86044,10.292032 -4.87455,1.564014 1.44118,12.869945 6.31573,11.305927 5.56091,-4.114459 10.20335,7.975211 4.64244,12.089675 -5.11772,0.127343 -2.24307,12.754651 2.87464,12.627306 6.49483,-2.381105 7.54316,10.526775 1.04834,12.907881 -4.94629,-1.319644 -5.74561,11.606051 -0.79932,12.92569 6.90258,-0.45485 4.27188,12.22552 -2.6307,12.68038 -4.37415,-2.65972 -8.78268,9.5172 -4.40853,12.17691 6.75112,1.50826 0.65451,12.93383 -6.09661,11.42558 -3.44763,-3.78432 -11.10822,6.65732 -7.66059,10.44163 6.05273,3.34917 -3.01588,12.59431 -9.06862,9.24515 -2.24182,-4.60234 -12.53385,3.2581 -10.29203,7.86045 4.86398,4.91877 -6.44195,11.23449 z"
       transform="translate(0,839.36218)" />
    <path
       sodipodi:type="spiral"
       style="fill:none;stroke:#000000;stroke-width:1px;stroke-linecap:butt;stroke-linejoin:miter;stroke-opacity:1"
       id="path2965"
       sodipodi:cx="60.609154"
       sodipodi:cy="125.6218"
       sodipodi:expansion="5.9699998"
       sodipodi:revolution="3"
       sodipodi:radius="44.977318"
       sodipodi:argument="-18.815861"
       sodipodi:t0="0"
       d="m 60.609154,125.6218 c 5e-6,0 1e-6,1e-5 -10e-7,2e-5 -1.06e-4,3.5e-4 -8.83e-4,2e-5 -0.001,-5e-5 -0.004,-0.002 -4.92e-4,-0.009 0.0014,-0.0114 0.01712,-0.0202 0.05036,-0.001 0.06334,0.0136 0.06788,0.0764 -0.0054,0.19227 -0.07187,0.23934 -0.251622,0.17821 -0.578685,-0.0438 -0.70899,-0.26566 -0.397781,-0.67743 0.172912,-1.47332 0.777804,-1.77582 1.58154,-0.7909 3.313956,0.50731 3.934007,1.93465 1.442118,3.31969 -1.243136,6.77673 -4.266697,7.93514 -6.416415,2.45832 -12.850527,-2.68983 -14.864815,-8.58003 -3.97076,-11.61132 5.306558,-22.9214 16.038156,-26.229019 19.910974,-6.136829 38.867021,9.743579 44.050461,28.254489"
       transform="translate(0,839.36218)" />
    <path
       style="fill:#000000;stroke:#000000;stroke-width:1;stroke-miterlimit:4;stroke-opacity:1;stroke-dasharray:none;fill-opacity:1"
       id="path2967"
       d="m 111.02528,137.06389 c 1.13724,-0.0684 2.05438,-0.0956 3.21244,-0.32578 5.06847,-1.00742 10.32235,-2.6052 14.73827,-5.31772 1.95768,-1.65279 4.25762,-2.96974 5.87304,-4.95838 4.13781,-5.09377 7.08355,-12.68671 9.14748,-18.75341 1.76628,-5.19182 3.90741,-13.65481 4.77134,-19.142948 0.44336,-2.816451 0.56524,-5.674185 0.84786,-8.511278 -0.0342,-2.540813 0.19613,-5.09901 -0.10254,-7.622439 -0.86243,-7.286573 -4.37986,-15.054663 -9.93015,-19.982803 -0.86927,-0.771834 -1.9091,-1.326946 -2.86365,-1.990419 -0.86775,-0.346902 -1.68027,-0.894328 -2.60326,-1.040706 -2.64553,-0.419558 -6.3508,1.250049 -8.44886,2.678555 -0.86275,0.587417 2.97795,-2.479652 2.77186,-1.456461 -0.23374,1.1605 -1.92887,1.37296 -2.89331,2.05944 -2.30471,1.755696 -4.66688,3.571912 -6.31467,6.002878 -1.44303,2.128884 -2.12155,4.47787 -2.76173,6.927857 -0.84286,4.190354 -0.83935,8.483331 -0.77215,12.738492 0.16163,1.890692 0.32219,3.992614 1.86447,5.323936 0.22978,0.198348 0.50186,0.341612 0.75278,0.512418 2.05366,1.307517 4.48842,1.292829 6.83881,1.412308 5.3052,0.158371 10.6131,0.119552 15.91979,0.157041 3.5064,-0.03564 7.03491,0.06908 10.52089,-0.404225 1.48978,-0.202276 1.99894,-0.382295 3.40605,-0.758012 0.53774,-0.257808 2.12298,-1.08287 1.61321,-0.773424 -11.65444,7.074566 -3.7297,2.100171 -3.10013,1.558854 0.48715,-0.418868 0.92547,-0.895017 1.33634,-1.388932 1.12614,-1.353727 1.49139,-2.22341 2.37237,-3.819923 0.34601,-0.77539 0.7664,-1.521702 1.03802,-2.326171 2.03538,-6.028206 2.3498,-13.228156 2.64697,-19.568736 0.10524,-2.077256 0.0433,-4.169377 0.20872,-6.244443 0.0232,-0.291718 0.13662,-1.4799 0.35184,-1.588401 2.31838,-1.168782 4.74304,-2.113591 7.11456,-3.170387 0.89264,0.920453 1.27061,1.290188 2.17831,2.333743 0.75841,0.871919 1.47453,1.780407 2.24363,2.642904 3.49983,3.924796 2.22746,2.248936 5.85304,6.248214 1.20651,1.330873 2.36849,2.701447 3.55273,4.05217 1.231,1.386068 2.54879,2.69966 3.69299,4.158202 2.39686,3.055358 4.63394,6.746359 6.54019,10.122498 2.00311,3.547684 2.96129,5.34826 4.24314,9.157929 0.45594,1.355045 0.7602,2.756484 1.1403,4.134726 0.30542,2.565935 0.79047,5.309785 0.50371,7.917023 -0.3753,3.41228 -1.44207,5.93901 -2.77536,9.10861 -2.08253,4.95074 -2.77929,5.93332 -5.46877,10.94333 -5.72151,10.82694 -13.13974,20.75049 -22.55185,28.66246 -2.85532,2.40022 -5.81032,4.71114 -8.98169,6.67488 -4.42173,2.73797 -9.1594,4.92933 -13.73909,7.394 -3.60682,0.75883 -7.13608,2.17464 -10.82045,2.27649 -7.89742,0.21832 -15.05203,-2.62205 -21.87125,-6.2081 -5.70315,-2.99913 -12.45928,-7.69038 -16.475997,-12.89116 -2.146882,-2.77975 -3.464068,-6.11102 -5.196102,-9.16654 -1.128736,-3.12411 -2.899285,-6.08645 -3.386207,-9.37233 -1.007598,-6.79953 0.810415,-15.60469 3.388355,-21.84751 1.324859,-3.20833 3.151232,-6.210134 5.129623,-9.062249 1.758017,-2.534416 3.518898,-5.226031 6.026958,-7.021453 3.75535,-2.688314 8.26948,-4.115151 12.40422,-6.172727 3.11289,0.53124 6.54208,0.126965 9.33867,1.593719 6.90892,3.623578 13.18761,13.374892 16.93174,19.52089 2.47485,4.06246 4.60262,8.32885 6.75037,12.57333 4.39955,8.69459 6.42658,13.78696 10.21894,22.62807 1.72599,3.19333 2.87744,6.77215 5.17797,9.57998 2.34404,2.86095 9.27013,7.33515 13.59338,6.66763 2.27763,-0.35168 4.41683,-1.82806 5.91557,-3.5788 0.78183,-0.91329 -0.0193,-2.42316 0.2294,-3.59938 0.76781,-3.63116 1.87323,-7.18263 2.80985,-10.77395 0.38688,-7.21295 1.45117,-16.78278 -0.3172,-23.9885 -1.11997,-4.56365 -3.06099,-8.91325 -5.14628,-13.124285 -4.36075,-8.806085 -10.56131,-17.276064 -17.37949,-24.316643 -3.75943,-3.882054 -8.04971,-7.212267 -12.07456,-10.8184 -13.06824,-10.701292 -28.00855,-18.576309 -43.25045,-25.662955 -4.59442,-2.136152 -9.286451,-4.05576 -13.929676,-6.08364 0,0 3.124648,-2.072008 3.124648,-2.072008 l 0,0 c 9.827838,4.675911 19.235328,9.047523 28.901598,14.11305 5.30682,2.780996 10.70749,5.422228 15.76021,8.641896 4.3296,2.758875 8.21047,6.165646 12.31571,9.248469 4.09679,3.582416 8.4583,6.882964 12.29036,10.747247 7.39135,7.453493 12.84145,14.994428 17.71666,24.256122 2.2006,4.180587 4.4935,8.406387 5.7136,12.970527 1.53963,5.75946 0.74672,18.25391 0.5804,24.01534 -2.54601,13.12102 0.0555,10.67382 -11.86555,20.09905 -1.82379,1.44196 -3.87318,3.00193 -6.18806,3.21824 -2.28681,0.21368 -4.60295,-0.86614 -6.58617,-2.02459 -7.23268,-4.22479 -7.55671,-7.84959 -11.35994,-15.29136 -4.85482,-12.03519 -9.47141,-24.36225 -16.48213,-35.36977 -4.08184,-6.408884 -10.30349,-15.178831 -17.6844,-18.595932 -2.84441,-1.316866 -6.21481,-0.82187 -9.32222,-1.232805 -5.85625,1.399533 -4.27103,0.339928 -9.71889,7.85259 -2.05049,2.827648 -3.953812,5.811744 -5.328036,9.022917 -2.742972,6.40954 -4.31304,14.45277 -3.265142,21.44351 0.489219,3.26369 2.149133,6.2406 3.223699,9.3609 1.732773,3.00153 3.086055,6.25686 5.198319,9.0046 3.95881,5.1498 10.43735,9.93118 16.09591,12.92206 6.79759,3.59291 13.92671,6.24083 21.78758,5.91128 3.67711,-0.15416 7.1842,-1.60219 10.7763,-2.40328 1.85729,-0.87679 3.83939,-1.52728 5.57187,-2.63035 8.7877,-5.59515 16.42807,-12.89936 22.54857,-21.31083 3.19477,-4.39062 5.42307,-8.67326 8.03779,-13.36403 1.9364,-3.84364 3.52261,-6.78165 5.13531,-10.71111 1.24339,-3.02962 2.18966,-5.52133 2.57804,-8.76087 0.34598,-2.885826 -0.0279,-4.940148 -0.31706,-7.821205 -0.91661,-3.823092 -1.00978,-4.882803 -2.60649,-8.617734 -2.98969,-6.993314 -7.31473,-13.381821 -12.60488,-18.829049 -3.24401,-3.369832 -6.44965,-6.786487 -9.81425,-10.037767 -1.30136,-1.257534 -2.59931,-2.52259 -3.98042,-3.691979 -0.29288,-0.247976 -0.61514,-0.458989 -0.92271,-0.688484 1.98782,-1.246869 4.0004,-2.455114 5.96346,-3.740608 0.154,-0.100845 -0.41939,0.02558 -0.52282,0.177856 -0.2031,0.299008 -0.24013,0.685033 -0.30484,1.040656 -0.38449,2.113045 -0.3318,4.30456 -0.59582,6.429402 -0.33121,3.859667 -0.68094,7.713176 -1.14487,11.559813 -0.18925,1.569134 -0.76308,6.441798 -1.23074,8.140776 -0.22721,0.825424 -0.67456,1.573772 -1.01184,2.360658 -0.90537,1.915173 -1.83668,3.937182 -3.39385,5.44245 -0.42133,0.407287 -0.9177,0.73461 -1.41996,1.036499 -7.2191,4.339127 -5.16266,3.409312 -9.42549,5.146344 -4.50547,0.981296 -9.11302,0.834912 -13.70098,0.788392 -5.39537,0.05073 -10.7926,0.08775 -16.18755,0.0014 -2.64495,-0.0794 -5.05486,-0.02194 -7.29013,-1.624145 -0.27488,-0.216712 -0.57341,-0.406399 -0.82463,-0.650138 -1.61082,-1.562829 -1.86676,-3.740593 -1.95288,-5.870479 0.0415,-4.333808 0.0609,-8.689793 0.83352,-12.970196 0.64068,-2.49943 1.30379,-5.019693 2.71163,-7.226809 1.63079,-2.556628 4.07291,-4.446547 6.44703,-6.255017 5.06246,-3.704533 3.33402,-2.580642 11.56188,-7.255797 2.58342,-1.467923 5.83507,-3.016892 8.92904,-2.275475 0.91851,0.220105 1.69114,0.841709 2.53671,1.262563 0.91883,0.739328 1.92619,1.380463 2.7565,2.217986 3.73435,3.766765 6.36163,8.693921 7.85639,13.744241 0.68105,2.301077 1.30322,4.644848 1.53765,7.033119 0.25349,2.582452 -0.0555,5.18943 -0.0832,7.784145 -0.34853,2.88942 -0.54847,5.800666 -1.04559,8.668259 -1.04151,6.007847 -3.09906,13.595491 -5.01002,19.339521 -1.70218,5.11648 -4.90405,14.1769 -8.31225,18.6738 -1.53409,2.02412 -3.82368,3.34387 -5.73552,5.0158 -3.75801,2.17346 -7.4358,4.49191 -11.27401,6.52037 -4.35644,2.30234 -9.64165,3.98222 -14.46659,5.07987 -0.93126,0.21186 -2.58342,0.37647 -3.60801,0.49114 0,0 6.04225,-4.38995 6.04225,-4.38995 z"
       transform="translate(0,839.36218)" />
  </g>
</svg>
