<?xml version="1.0" encoding="UTF-8" standalone="no"?>
<svg
   version="1.1"
   x="0px"
   y="0px"
   width="72"
   height="72"
   viewBox="0 0 72 72"
   enable-background="new 0 0 72 72"
   xml:space="preserve"
   id="svg8"
   sodipodi:docname="twitter.svg"
   inkscape:version="1.1 (1:1.1+202105261517+ce6663b3b7)"
   xmlns:inkscape="http://www.inkscape.org/namespaces/inkscape"
   xmlns:sodipodi="http://sodipodi.sourceforge.net/DTD/sodipodi-0.dtd"
   xmlns="http://www.w3.org/2000/svg"
   xmlns:svg="http://www.w3.org/2000/svg"><defs
   id="defs12">

</defs><sodipodi:namedview
   id="namedview10"
   pagecolor="#ffffff"
   bordercolor="#666666"
   borderopacity="1.0"
   inkscape:pageshadow="2"
   inkscape:pageopacity="0.0"
   inkscape:pagecheckerboard="0"
   showgrid="false"
   inkscape:zoom="0.64790503"
   inkscape:cx="354.9903"
   inkscape:cy="-33.183876"
   inkscape:window-width="1520"
   inkscape:window-height="1031"
   inkscape:window-x="200"
   inkscape:window-y="0"
   inkscape:window-maximized="1"
   inkscape:current-layer="svg8" />
<g
   id="bounds"><rect
     opacity="0"
     width="72"
     height="72"
     id="rect2" /></g>
<path
   d="m 67.812,16.141 c -2.348,1.039 -4.869,1.743 -7.519,2.06 2.703,-1.62 4.778,-4.187 5.756,-7.244 -2.529,1.5 -5.33,2.592 -8.313,3.176 C 55.349,11.591 51.948,10 48.182,10 40.953,10 35.09,15.861 35.09,23.093 c 0,1.026 0.118,2.021 0.338,2.981 C 24.543,25.526 14.9,20.317 8.441,12.395 7.315,14.331 6.67,16.579 6.67,18.976 c 0,4.542 2.312,8.551 5.824,10.898 -2.146,-0.069 -4.165,-0.657 -5.93,-1.638 -0.002,0.055 -0.002,0.11 -0.002,0.162 0,6.345 4.513,11.638 10.504,12.84 -1.101,0.298 -2.256,0.457 -3.449,0.457 -0.846,0 -1.667,-0.078 -2.465,-0.231 1.667,5.2 6.499,8.986 12.23,9.09 C 18.9,54.066 13.253,56.16 7.122,56.16 6.067,56.16 5.026,56.099 4,55.976 c 5.794,3.717 12.676,5.882 20.067,5.882 24.083,0 37.251,-19.949 37.251,-37.249 0,-0.566 -0.014,-1.134 -0.039,-1.694 2.559,-1.847 4.779,-4.15 6.533,-6.774 z"
   id="path5"
   style="fill:#1da1f2;fill-opacity:1" />
</svg>
